<svg width="1632" height="595" viewBox="0 0 1632 595" fill="none" xmlns="http://www.w3.org/2000/svg">
<rect width="850" height="595" fill="white"/>
<path d="M409.497 221.159C414.146 216.463 421.825 217.835 426.933 221.15C433.508 225.416 435.389 233.207 436.359 240.113C438 251.804 438.486 268.33 452.943 273.218C459.622 275.476 467.268 273.611 472.91 269.945C479.072 265.94 482.915 259.779 485.49 253.394C488.607 245.663 490.411 237.394 491.941 229.292C493.505 221.007 494.53 212.633 494.99 204.236C495.44 196.02 495.147 187.858 494.791 179.648C494.513 173.238 494.407 166.506 496.768 160.377C499.153 154.186 504.698 149.477 511.988 148.856C519.065 148.253 526.353 150.99 531.473 155.406C543.758 166.004 544.336 183.304 547.081 197.513C548.524 204.978 550.633 212.532 555.053 219.027C558.689 224.369 563.741 228.847 569.561 232.17C581.299 238.871 596.257 240.827 609.283 236.223C621.999 231.728 632.236 221.902 636.665 210.091C637.759 207.175 638.435 204.162 638.778 201.096C638.937 199.671 636.506 199.681 636.348 201.096C634.891 214.125 625.772 225.924 613.275 232.103C600.416 238.462 584.844 237.655 572.28 231.063C566.104 227.822 560.731 223.252 556.998 217.677C552.471 210.917 550.532 203.038 549.122 195.302C546.574 181.329 545.419 165.286 533.999 154.558C525.143 146.237 508.846 142.898 499.328 152.166C489.528 161.709 492.466 177.081 492.779 188.928C493.237 206.277 491.286 223.667 486.963 240.562C485.081 247.917 482.916 255.501 478.192 261.807C473.875 267.57 466.82 272.037 458.964 271.966C451.129 271.895 445.624 266.614 442.842 260.319C439.908 253.677 439.716 246.504 438.7 239.493C437.768 233.056 436.07 225.934 430.806 221.224C426.713 217.561 420.642 215.203 414.881 216.046C412.114 216.45 409.659 217.684 407.779 219.583C406.73 220.643 408.443 222.224 409.497 221.159Z" fill="#67C9CD"/>
<path d="M540.795 129.752H485.355C483.957 129.752 482.82 128.709 482.82 127.428C482.82 126.146 483.958 125.103 485.355 125.103H540.795C542.192 125.103 543.329 126.146 543.329 127.428C543.329 128.709 542.192 129.752 540.795 129.752Z" fill="#E6E6E6"/>
<path d="M626.658 264.949H571.219C569.821 264.949 568.684 263.906 568.684 262.624C568.684 261.342 569.821 260.3 571.219 260.3H626.658C628.056 260.3 629.193 261.342 629.193 262.624C629.193 263.906 628.056 264.949 626.658 264.949Z" fill="#E6E6E6"/>
<path d="M672.02 357.061H616.581C615.183 357.061 614.046 356.018 614.046 354.736C614.046 353.454 615.183 352.412 616.581 352.412H672.02C673.418 352.412 674.555 353.454 674.555 354.736C674.555 356.018 673.418 357.061 672.02 357.061Z" fill="#E6E6E6"/>
<path d="M419.29 79.2392H363.85C362.453 79.2392 361.315 78.1963 361.315 76.9145C361.315 75.6328 362.453 74.5904 363.85 74.5904H419.29C420.688 74.5904 421.824 75.6328 421.824 76.9145C421.824 78.1963 420.688 79.2392 419.29 79.2392Z" fill="#E6E6E6"/>
<path d="M0 592.182C0 593.163 0.858684 593.95 1.92798 593.95H848.072C849.141 593.95 850 593.163 850 592.182C850 591.202 849.141 590.414 848.072 590.414H1.92798C0.858684 590.414 0 591.202 0 592.182Z" fill="#CCCCCC"/>
<path d="M643.568 330.087H392.296C391.401 330.087 390.676 329.422 390.676 328.601V108.721C390.676 107.9 391.401 107.236 392.296 107.236C393.19 107.236 393.916 107.9 393.916 108.721V198.439C393.916 269.505 456.738 327.116 534.232 327.116H643.568C644.463 327.116 645.188 327.78 645.188 328.601C645.188 329.422 644.463 330.087 643.568 330.087Z" fill="#E6E6E6"/>
<path d="M445.211 241.718H389.771C388.374 241.718 387.236 240.675 387.236 239.393C387.236 238.112 388.374 237.069 389.771 237.069H445.211C446.609 237.069 447.745 238.112 447.745 239.393C447.745 240.675 446.609 241.718 445.211 241.718Z" fill="#E6E6E6"/>
<path d="M390.241 248.333C399.033 245.67 404.662 239.352 402.813 234.221C400.964 229.089 392.339 227.09 383.544 229.755C380.015 230.775 376.803 232.555 374.178 234.947L337.08 246.661L343.445 262.509L379.342 249.278C383.005 249.766 386.742 249.442 390.241 248.333Z" fill="#FFB6B6"/>
<path d="M199.539 339.163C199.839 347.65 204.857 354.388 210.747 354.211C216.637 354.035 221.166 347.013 220.865 338.523C220.795 335.131 219.84 331.802 218.08 328.817L216.313 292.873L197.937 293.993L201.63 329.309C200.085 332.393 199.368 335.772 199.539 339.163Z" fill="#FFB6B6"/>
<path d="M241.962 581.362L258.365 581.36L262.567 522.958L241.959 523.343L241.962 581.362Z" fill="#FFB6B6"/>
<path d="M298.159 581.021C298.669 581.809 298.939 584.355 298.939 585.272C298.939 588.092 296.447 590.378 293.372 590.378H242.576C240.479 590.378 238.778 588.818 238.778 586.895V584.956C238.778 584.956 236.265 579.127 241.439 571.942C241.439 571.942 247.869 577.568 257.477 568.757L260.31 564.05L280.819 577.805L292.187 579.088C294.674 579.369 296.879 579.045 298.159 581.021Z" fill="#2F2E41"/>
<path d="M280.844 581.362L297.246 581.36L301.449 522.958L280.841 523.343L280.844 581.362Z" fill="#FFB6B6"/>
<path d="M337.04 581.021C337.551 581.809 337.82 584.355 337.82 585.272C337.82 588.092 335.328 590.378 332.253 590.378H281.458C279.36 590.378 277.66 588.818 277.66 586.895V584.956C277.66 584.956 275.147 579.127 280.32 571.942C280.32 571.942 286.75 577.568 296.358 568.757L299.192 564.05L319.701 577.805L331.069 579.088C333.556 579.369 335.761 579.045 337.04 581.021Z" fill="#2F2E41"/>
<path d="M251.507 146.361C264.833 146.361 275.635 136.455 275.635 124.234C275.635 112.014 264.833 102.108 251.507 102.108C238.182 102.108 227.379 112.014 227.379 124.234C227.379 136.455 238.182 146.361 251.507 146.361Z" fill="#FFB6B6"/>
<path d="M218.123 308.278L229.463 456.845L235.943 556.386L266.725 554.9L263.485 446.446L269.965 379.59L279.685 554.9H304.184L313.707 309.763L261.054 303.078L218.123 308.278Z" fill="#2F2E41"/>
<path d="M260.244 141.882C253.382 147.94 237.523 143.923 229.463 141.882C225.027 140.759 222.349 139.601 221.363 137.425C220.677 135.913 221.067 134.479 219.743 131.482C218.967 129.727 218.558 129.596 218.123 128.511C216.908 125.486 218.595 122.79 219.743 119.597C222.137 112.933 219.278 112.185 221.363 107.712C224.497 100.986 233.021 98.2498 235.943 97.3118C241.4 95.5604 245.95 95.7456 247.284 95.8261C255.83 96.3421 261.544 100.364 263.485 101.769C267.418 104.617 269.347 107.629 273.205 113.654C276.562 118.897 276.807 120.909 276.445 122.568C275.893 125.097 274.303 125.106 273.205 128.511C271.958 132.376 273.376 134.319 271.585 135.939C270.374 137.035 269.248 136.579 266.725 137.425C263.251 138.589 261.537 140.741 260.244 141.882Z" fill="#2F2E41"/>
<path d="M279.685 164.167C279.685 164.167 255.384 135.939 224.603 146.339L214.634 164.167L211.303 167.058C197.331 179.187 190.831 196.881 193.952 214.29L208.402 294.907C208.402 294.907 206.782 326.106 218.123 335.02C218.123 335.02 234.323 306.792 273.205 320.163C312.086 333.534 320.187 326.106 320.187 326.106L307.226 241.422L279.685 164.167Z" fill="#2F2E41"/>
<path d="M271.585 168.624L263.484 184.967L294.266 280.05L378.509 251.822L367.169 233.994L326.667 244.394C326.667 244.394 295.886 161.196 271.585 168.624Z" fill="#2F2E41"/>
<path d="M214.073 317.935H196.252L193.012 199.081L214.073 239.194V317.935Z" fill="#2F2E41"/>
<path d="M409.29 227.308C413.317 227.308 416.581 224.315 416.581 220.623C416.581 216.931 413.317 213.937 409.29 213.937C405.264 213.937 402 216.931 402 220.623C402 224.315 405.264 227.308 409.29 227.308Z" fill="#3F3D56"/>
<path d="M457.892 279.307C461.919 279.307 465.183 276.314 465.183 272.622C465.183 268.929 461.919 265.936 457.892 265.936C453.866 265.936 450.602 268.929 450.602 272.622C450.602 276.314 453.866 279.307 457.892 279.307Z" fill="#3F3D56"/>
<path d="M512.975 154.51C517.001 154.51 520.265 151.517 520.265 147.825C520.265 144.132 517.001 141.139 512.975 141.139C508.948 141.139 505.684 144.132 505.684 147.825C505.684 151.517 508.948 154.51 512.975 154.51Z" fill="#3F3D56"/>
<path d="M593.978 243.651C598.004 243.651 601.268 240.658 601.268 236.965C601.268 233.273 598.004 230.28 593.978 230.28C589.952 230.28 586.688 233.273 586.688 236.965C586.688 240.658 589.952 243.651 593.978 243.651Z" fill="#3F3D56"/>
<path d="M640.96 207.995C644.986 207.995 648.25 205.001 648.25 201.309C648.25 197.617 644.986 194.624 640.96 194.624C636.934 194.624 633.67 197.617 633.67 201.309C633.67 205.001 636.934 207.995 640.96 207.995Z" fill="#3F3D56"/>
<path d="M627.071 59.4626L640.404 65.2546C634.936 58.2559 630.223 47.3254 627.701 38.6276C623.429 46.7297 616.544 56.6431 609.728 62.5647L623.82 59.2403C615.136 98.2659 582.477 126.282 545.077 126.282L544.548 127.692C583.613 127.692 618.205 100.064 627.071 59.4626Z" fill="#3F3D56"/>
<path d="M586.765 0H671.009C674.582 0 677.489 2.66594 677.489 5.9427C677.489 9.21947 674.582 11.8854 671.009 11.8854H586.765C583.192 11.8854 580.285 9.21947 580.285 5.9427C580.285 2.66594 583.192 0 586.765 0Z" fill="#67C9CD"/>
<path d="M643.679 342.247C642.79 342.247 641.894 342.065 641.041 341.698C638.936 340.791 637.614 338.978 637.506 336.848L636.633 319.576C636.521 317.357 637.783 315.341 639.928 314.31C642.073 313.28 644.601 313.481 646.524 314.827L659.352 323.824C660.894 324.905 661.776 326.547 661.769 328.326C661.764 330.107 660.871 331.742 659.322 332.816L647.367 341.093C646.264 341.856 644.98 342.247 643.679 342.247Z" fill="#E6E6E6"/>
<path d="M407.195 110.162C407.195 110.976 406.997 111.798 406.597 112.581C405.608 114.511 403.63 115.723 401.308 115.822L382.473 116.623C380.054 116.726 377.855 115.568 376.732 113.601C375.608 111.634 375.827 109.316 377.295 107.552L387.105 95.7887C388.284 94.3741 390.075 93.566 392.015 93.5718C393.957 93.5769 395.741 94.3951 396.911 95.8162L405.937 106.779C406.769 107.791 407.195 108.968 407.195 110.162Z" fill="#E6E6E6"/>
<path d="M512.376 94.8644C502.785 92.7576 492.538 94.6644 484.339 99.6311C475.742 104.839 470.05 113.179 468.123 122.418C464.148 141.48 476.292 160.522 495.486 168.108C515.663 176.084 539.665 170.732 554.318 155.93C561.58 148.594 566.119 139.312 567.486 129.497C568.832 119.828 567.297 108.671 560.912 100.601C554.579 92.5966 544.033 89.9103 533.849 88.5985C523.967 87.3257 510.857 86.7724 505.514 96.3645C504.495 98.1933 504.016 100.164 504.129 102.215C504.208 103.642 506.638 103.651 506.559 102.215C506.312 97.7304 509.573 93.983 513.752 91.9674C518.595 89.6313 524.437 89.8291 529.719 90.3498C539.255 91.2898 550.082 92.9666 556.959 99.6831C563.809 106.374 565.863 116.569 565.438 125.45C564.994 134.72 561.511 143.844 555.408 151.258C543.365 165.888 522.294 172.848 502.91 168.122C484.023 163.517 483.776 153.238 484.088 135.035C484.254 125.324 474.251 110.038 482.418 103.71C490.414 97.5138 501.497 94.7654 511.73 97.0134C513.25 97.3473 513.899 95.1989 512.376 94.8644Z" fill="#67C9CD"/>
<path d="M848.322 456.074C846.954 453.959 841.037 456.224 839.949 454.304C838.865 452.392 844.363 449.477 847.504 442.82C848.07 441.62 851.64 434.054 848.997 431.72C843.988 427.295 821.068 445.555 813.047 439.58C811.286 438.268 810.057 435.65 804.729 431.4C802.609 429.709 801.328 428.945 800.087 429.229C798.327 429.632 798.188 431.792 796.301 436.04C793.47 442.409 791.797 442.025 790.147 447.106C788.923 450.879 789.203 453.072 787.762 453.499C785.724 454.104 783.848 450.103 781.264 450.461C778.628 450.827 777.034 455.486 776.531 458.974C775.586 465.52 778.208 469.839 779.661 474.381C781.24 479.317 782.177 486.824 778.53 497.45L742.44 590.7C750.408 571.566 773.478 519.113 783.172 499.621C785.97 493.994 789.06 488.286 795.405 486.034C801.513 483.865 809.902 485.16 820.597 482.797C821.847 482.521 825.313 481.712 825.749 479.843C826.11 478.297 824.071 477.434 824.384 475.987C824.804 474.045 828.814 474.021 833.741 471.781C837.215 470.201 839.379 468.322 841.24 466.707C841.802 466.22 850.143 458.89 848.322 456.074Z" fill="#F2F2F2"/>
<path d="M706.331 505.165C704.804 505.17 704.309 508.487 702.968 508.423C701.631 508.359 701.658 505.043 699.001 501.709C698.522 501.108 695.503 497.318 693.491 497.834C689.678 498.812 692.838 514.397 687.325 516.283C686.115 516.697 684.359 516.495 680.547 517.666C679.031 518.132 678.252 518.489 678.046 519.129C677.754 520.038 678.87 520.724 680.599 522.799C683.191 525.91 682.502 526.553 684.746 528.761C686.412 530.401 687.667 530.908 687.48 531.679C687.215 532.771 684.532 532.461 683.979 533.727C683.414 535.019 685.447 537.081 687.169 538.314C690.4 540.628 693.468 540.694 696.318 541.351C699.415 542.064 703.703 543.808 708.339 548.516L747.833 591.665C739.891 582.558 718.474 557.04 710.839 547.053C708.635 544.17 706.472 541.132 707.097 537.627C707.699 534.251 710.812 530.849 712.634 525.354C712.847 524.712 713.414 522.918 712.539 522.183C711.816 521.574 710.766 522.243 710.081 521.684C709.163 520.935 710.307 519.124 710.53 516.26C710.687 514.24 710.306 512.724 709.978 511.42C709.88 511.027 708.363 505.158 706.331 505.165Z" fill="#F2F2F2"/>
<path d="M736.788 511.435L735.868 503.905L736.288 503.334C738.233 500.695 739.224 498.117 739.236 495.67C739.238 495.281 739.218 494.892 739.198 494.496C739.119 492.925 739.02 490.973 740.13 488.697C740.752 487.428 742.501 484.49 745.129 484.854C745.837 484.944 746.372 485.243 746.778 485.592C746.838 485.504 746.899 485.417 746.965 485.323C747.783 484.177 748.432 483.686 749.056 483.214C749.536 482.85 750.031 482.476 750.809 481.589C751.149 481.2 751.415 480.858 751.639 480.571C752.319 479.702 753.207 478.665 754.773 478.684C756.446 478.756 757.322 480.025 757.903 480.865C758.94 482.363 759.41 483.443 759.721 484.159C759.834 484.421 759.963 484.715 760.028 484.806C760.567 485.533 764.95 484.853 766.602 484.606C770.311 484.039 773.52 483.548 774.842 485.693C775.79 487.228 775.086 489.256 772.687 491.885C771.94 492.703 771.145 493.325 770.439 493.812C771.024 494.132 771.547 494.623 771.76 495.394C772.259 497.219 770.548 499.048 766.677 500.836C765.716 501.284 764.421 501.88 762.607 502.167C761.753 502.302 760.984 502.334 760.326 502.352C760.312 502.702 760.223 503.08 759.991 503.469C759.311 504.614 757.895 505.159 755.762 505.028C753.415 504.916 751.483 504.505 749.778 504.145C748.289 503.832 747.006 503.567 745.999 503.629C744.132 503.767 742.693 505.137 741.004 506.915L736.788 511.435Z" fill="#F2F2F2"/>
<path d="M741.054 466.603L733.345 469.329L732.637 469.101C729.359 468.045 726.389 467.82 723.805 468.43C723.394 468.527 722.989 468.643 722.576 468.761C720.939 469.23 718.905 469.813 716.223 469.406C714.726 469.175 711.184 468.37 710.901 465.946C710.817 465.295 710.996 464.744 711.261 464.295C711.154 464.265 711.046 464.233 710.93 464.198C709.514 463.763 708.832 463.312 708.175 462.878C707.67 462.545 707.149 462.2 706.017 461.736C705.52 461.532 705.092 461.383 704.732 461.257C703.643 460.875 702.325 460.35 701.947 458.956C701.599 457.453 702.715 456.354 703.454 455.626C704.771 454.326 705.791 453.636 706.467 453.178C706.715 453.011 706.993 452.822 707.072 452.741C707.702 452.079 705.873 448.363 705.194 446.961C703.655 443.815 702.323 441.093 704.25 439.376C705.628 438.146 707.947 438.256 711.328 439.716C712.38 440.172 713.238 440.719 713.93 441.222C714.12 440.622 714.505 440.033 715.264 439.65C717.062 438.743 719.425 439.797 722.294 442.778C723.01 443.517 723.967 444.514 724.73 446.05C725.089 446.774 725.318 447.448 725.504 448.027C725.876 447.951 726.297 447.934 726.767 448.041C728.147 448.354 729.081 449.471 729.484 451.396C729.961 453.507 730.018 455.325 730.07 456.929C730.118 458.329 730.164 459.534 730.484 460.411C731.104 462.033 732.914 462.962 735.218 464.009L741.054 466.603Z" fill="#F2F2F2"/>
<path d="M736.788 444.42L735.868 436.891L736.288 436.32C738.233 433.68 739.224 431.102 739.236 428.656C739.238 428.267 739.218 427.878 739.198 427.481C739.119 425.911 739.02 423.958 740.13 421.682C740.752 420.413 742.501 417.476 745.129 417.839C745.837 417.93 746.372 418.228 746.778 418.577C746.838 418.49 746.899 418.403 746.965 418.308C747.783 417.163 748.432 416.672 749.056 416.2C749.536 415.836 750.031 415.461 750.809 414.574C751.149 414.185 751.415 413.844 751.639 413.556C752.319 412.687 753.207 411.651 754.773 411.669C756.446 411.742 757.322 413.011 757.903 413.851C758.94 415.349 759.41 416.429 759.721 417.145C759.834 417.407 759.963 417.701 760.028 417.792C760.567 418.519 764.95 417.839 766.602 417.592C770.311 417.025 773.52 416.534 774.842 418.679C775.79 420.213 775.086 422.242 772.687 424.871C771.94 425.689 771.145 426.311 770.439 426.798C771.024 427.118 771.547 427.609 771.76 428.379C772.259 430.204 770.548 432.033 766.677 433.822C765.716 434.269 764.421 434.866 762.607 435.153C761.753 435.287 760.984 435.32 760.326 435.338C760.312 435.687 760.223 436.065 759.991 436.454C759.311 437.6 757.895 438.145 755.762 438.014C753.415 437.901 751.483 437.491 749.778 437.131C748.289 436.818 747.006 436.553 745.999 436.614C744.132 436.752 742.693 438.123 741.004 439.901L736.788 444.42Z" fill="#F2F2F2"/>
<path d="M745.189 590.578L743.468 589.589L741.462 589.8C741.43 589.629 741.321 589.236 741.157 588.622C740.259 585.255 737.521 575.009 735.237 558.874C733.644 547.61 732.742 536.03 732.555 524.451C732.369 512.852 732.968 504.072 733.447 497.015C733.81 491.692 734.25 486.624 734.682 481.687C735.832 468.496 736.916 456.037 736.11 442.242C735.931 439.163 735.556 432.753 731.473 425.932C729.104 421.977 725.841 418.465 721.773 415.498L724.303 412.582C728.793 415.861 732.403 419.752 735.033 424.144C739.561 431.706 739.969 438.69 740.165 442.046C740.986 456.084 739.89 468.664 738.728 481.981C738.3 486.901 737.86 491.947 737.499 497.248C737.023 504.239 736.431 512.943 736.615 524.392C736.797 535.834 737.689 547.272 739.261 558.394C741.517 574.326 744.215 584.419 745.101 587.735C745.573 589.505 745.672 589.876 745.189 590.578Z" fill="#F2F2F2"/>
<path d="M714.328 421.413C714.161 421.413 713.993 421.41 713.822 421.399C710.365 421.228 707.164 419.33 704.305 415.76C702.965 414.08 702.279 412.164 700.912 408.343C700.699 407.754 699.669 404.765 699.042 400.653C698.632 397.966 698.683 396.843 699.264 395.85C699.908 394.745 700.951 393.974 702.125 393.454C702.073 393.098 702.115 392.731 702.283 392.356C702.975 390.804 704.815 391.007 705.81 391.106C706.313 391.164 706.942 391.24 707.62 391.207C708.686 391.16 709.259 390.869 710.127 390.433C710.958 390.015 711.991 389.495 713.523 389.208C716.544 388.63 719.076 389.415 719.91 389.673C724.301 391.015 726.466 394.145 728.971 397.77C729.471 398.497 731.185 401.144 732.317 404.772C733.134 407.39 733.019 408.553 732.773 409.419C732.274 411.197 731.094 412.215 728.099 414.462C724.971 416.814 723.401 417.992 722.053 418.708C718.915 420.37 716.944 421.413 714.328 421.413Z" fill="#F2F2F2"/>
<g clip-path="url(#clip0_29_631)">
<rect width="782" height="595" transform="translate(850)" fill="white"/>
<path d="M855.244 574.615L863.646 561.364L865.324 568.936C865.618 570.262 865.912 571.61 866.184 572.947C868.571 570.947 871.11 569.096 873.594 567.321C881.221 561.888 888.845 556.447 896.465 551L894.079 564.583C892.608 572.947 891.072 581.481 887.432 589.129C887.029 589.995 886.593 590.851 886.125 591.685H850.668C850.383 590.91 850.185 590.106 850.079 589.289C850.07 589.236 850.067 589.182 850.069 589.129C849.513 583.941 852.433 579.054 855.244 574.615Z" fill="#F0F0F0"/>
<path d="M1490.05 0H990.996C986.708 0.00668912 982.598 1.68146 979.566 4.6573C976.534 7.63314 974.828 11.6673 974.821 15.8758V346.422C974.825 350.631 976.531 354.667 979.563 357.643C982.596 360.619 986.707 362.293 990.996 362.297H1490.05C1494.34 362.293 1498.45 360.619 1501.48 357.643C1504.51 354.667 1506.22 350.631 1506.22 346.422V15.8758C1506.21 11.6673 1504.51 7.63312 1501.48 4.65728C1498.44 1.68145 1494.33 0.00668909 1490.05 0Z" fill="#E6E6E6"/>
<path d="M1486.97 351.353H1159.98C1114.16 351.222 1070.25 333.298 1037.85 301.497C1005.45 269.696 987.194 226.602 987.06 181.629V19.9747C987.06 17.5796 988.029 15.2825 989.753 13.5873C991.476 11.8921 993.815 10.9373 996.255 10.9323H1486.97C1489.41 10.9372 1491.75 11.8921 1493.47 13.5873C1495.2 15.2825 1496.17 17.5796 1496.17 19.9747V342.328C1496.16 344.721 1495.19 347.015 1493.47 348.707C1491.75 350.399 1489.41 351.351 1486.97 351.353Z" fill="white"/>
<path d="M1461.21 55.8799H1002.05C1001.58 55.8696 1001.12 55.6762 1000.79 55.3412C1000.45 55.0062 1000.27 54.5562 1000.27 54.0876C1000.27 53.619 1000.45 53.169 1000.79 52.834C1001.12 52.499 1001.58 52.3057 1002.05 52.2953H1461.21C1461.69 52.3057 1462.15 52.499 1462.48 52.834C1462.81 53.169 1463 53.619 1463 54.0876C1463 54.5562 1462.81 55.0062 1462.48 55.3412C1462.15 55.6762 1461.69 55.8696 1461.21 55.8799Z" fill="#CACACA"/>
<path d="M1033.31 43.1445C1039.22 43.1445 1044.01 38.3372 1044.01 32.407C1044.01 26.4768 1039.22 21.6695 1033.31 21.6695C1027.4 21.6695 1022.61 26.4768 1022.61 32.407C1022.61 38.3372 1027.4 43.1445 1033.31 43.1445Z" fill="#3F3D56"/>
<path d="M1070.28 43.1445C1076.19 43.1445 1080.98 38.3372 1080.98 32.407C1080.98 26.4768 1076.19 21.6695 1070.28 21.6695C1064.37 21.6695 1059.57 26.4768 1059.57 32.407C1059.57 38.3372 1064.37 43.1445 1070.28 43.1445Z" fill="#3F3D56"/>
<path d="M1107.24 43.1445C1113.15 43.1445 1117.94 38.3372 1117.94 32.407C1117.94 26.4768 1113.15 21.6695 1107.24 21.6695C1101.33 21.6695 1096.54 26.4768 1096.54 32.407C1096.54 38.3372 1101.33 43.1445 1107.24 43.1445Z" fill="#3F3D56"/>
<path d="M1314.75 216.996H1128.8C1125.44 217.038 1122.18 215.828 1119.69 213.609C1117.2 211.391 1115.66 208.328 1115.37 205.038C1115.26 203.355 1115.48 201.666 1116.03 200.068C1116.58 198.47 1117.44 196.994 1118.57 195.723C1119.7 194.453 1121.07 193.414 1122.61 192.664C1124.15 191.915 1125.83 191.471 1127.54 191.356C1127.83 191.337 1128.13 191.327 1128.42 191.327H1314.75C1318.22 191.327 1321.54 192.679 1323.99 195.086C1326.45 197.493 1327.82 200.757 1327.82 204.161C1327.82 207.565 1326.45 210.83 1323.99 213.236C1321.54 215.643 1318.22 216.996 1314.75 216.996Z" fill="#67C9CD"/>
<path d="M1315.09 145.116C1321.62 145.116 1326.91 139.925 1326.91 133.521C1326.91 127.117 1321.62 121.926 1315.09 121.926C1308.57 121.926 1303.28 127.117 1303.28 133.521C1303.28 139.925 1308.57 145.116 1315.09 145.116Z" fill="#E6E6E6"/>
<path d="M1313.48 139.556C1313.28 139.556 1313.08 139.509 1312.89 139.42C1312.71 139.33 1312.55 139.2 1312.43 139.04L1309.21 134.822C1309.1 134.686 1309.03 134.532 1308.98 134.368C1308.94 134.203 1308.93 134.032 1308.95 133.864C1308.98 133.695 1309.03 133.533 1309.12 133.387C1309.21 133.241 1309.33 133.113 1309.47 133.011C1309.6 132.909 1309.76 132.835 1309.93 132.793C1310.1 132.751 1310.27 132.742 1310.44 132.766C1310.61 132.791 1310.78 132.848 1310.93 132.936C1311.08 133.023 1311.21 133.138 1311.31 133.274L1313.42 136.034L1318.83 128.06C1319.03 127.775 1319.33 127.577 1319.67 127.508C1320.01 127.44 1320.36 127.508 1320.65 127.696C1320.94 127.885 1321.15 128.179 1321.22 128.515C1321.29 128.85 1321.22 129.198 1321.03 129.484L1321.02 129.491L1314.57 138.982C1314.46 139.153 1314.3 139.295 1314.12 139.395C1313.93 139.495 1313.73 139.55 1313.52 139.556L1313.48 139.556Z" fill="white"/>
<path d="M1315.09 286.293C1321.62 286.293 1326.91 281.102 1326.91 274.698C1326.91 268.294 1321.62 263.103 1315.09 263.103C1308.57 263.103 1303.28 268.294 1303.28 274.698C1303.28 281.102 1308.57 286.293 1315.09 286.293Z" fill="#E6E6E6"/>
<path d="M1313.48 280.733C1313.28 280.733 1313.08 280.686 1312.89 280.597C1312.71 280.507 1312.55 280.377 1312.43 280.217L1309.21 275.999C1309.1 275.864 1309.03 275.709 1308.98 275.545C1308.94 275.38 1308.93 275.209 1308.95 275.041C1308.98 274.873 1309.03 274.711 1309.12 274.564C1309.21 274.418 1309.33 274.29 1309.47 274.188C1309.6 274.086 1309.76 274.012 1309.93 273.97C1310.1 273.928 1310.27 273.919 1310.44 273.944C1310.61 273.968 1310.78 274.026 1310.93 274.113C1311.08 274.2 1311.21 274.315 1311.31 274.452L1313.42 277.211L1318.83 269.238C1319.03 268.952 1319.33 268.754 1319.67 268.685C1320.01 268.617 1320.36 268.685 1320.65 268.874C1320.94 269.062 1321.15 269.357 1321.22 269.692C1321.29 270.027 1321.22 270.376 1321.03 270.661L1321.02 270.669L1314.57 280.159C1314.46 280.33 1314.3 280.472 1314.12 280.572C1313.93 280.672 1313.73 280.727 1313.52 280.733L1313.48 280.733Z" fill="white"/>
<path d="M1219.95 146.407H1128.8C1125.44 146.449 1122.18 145.239 1119.69 143.021C1117.2 140.802 1115.66 137.739 1115.37 134.449C1115.26 132.766 1115.48 131.078 1116.03 129.48C1116.58 127.882 1117.44 126.405 1118.57 125.135C1119.7 123.864 1121.07 122.825 1122.61 122.076C1124.15 121.326 1125.83 120.882 1127.54 120.768C1127.83 120.748 1128.13 120.739 1128.42 120.738H1219.95C1223.42 120.738 1226.74 122.091 1229.2 124.497C1231.65 126.904 1233.03 130.169 1233.03 133.573C1233.03 136.977 1231.65 140.241 1229.2 142.648C1226.74 145.055 1223.42 146.407 1219.95 146.407Z" fill="#67C9CD"/>
<path d="M1314.75 146.942H1128.42C1124.81 146.942 1121.34 145.533 1118.79 143.026C1116.23 140.519 1114.8 137.118 1114.8 133.573C1114.8 130.027 1116.23 126.626 1118.79 124.119C1121.34 121.612 1124.81 120.204 1128.42 120.204H1314.75C1318.36 120.204 1321.82 121.612 1324.38 124.119C1326.93 126.626 1328.37 130.027 1328.37 133.573C1328.37 137.118 1326.93 140.519 1324.38 143.026C1321.82 145.533 1318.36 146.942 1314.75 146.942ZM1128.42 122.343C1125.39 122.343 1122.48 123.526 1120.33 125.632C1118.18 127.738 1116.98 130.594 1116.98 133.573C1116.98 136.551 1118.18 139.407 1120.33 141.513C1122.48 143.619 1125.39 144.803 1128.42 144.803H1314.75C1317.78 144.803 1320.69 143.619 1322.84 141.513C1324.98 139.407 1326.19 136.551 1326.19 133.573C1326.19 130.594 1324.98 127.738 1322.84 125.632C1320.69 123.526 1317.78 122.343 1314.75 122.343H1128.42Z" fill="#3F3D56"/>
<path d="M1314.75 217.53H1128.42C1124.81 217.53 1121.34 216.122 1118.79 213.615C1116.23 211.107 1114.8 207.707 1114.8 204.161C1114.8 200.616 1116.23 197.215 1118.79 194.708C1121.34 192.201 1124.81 190.792 1128.42 190.792H1314.75C1318.36 190.792 1321.82 192.201 1324.38 194.708C1326.93 197.215 1328.37 200.616 1328.37 204.161C1328.37 207.707 1326.93 211.107 1324.38 213.615C1321.82 216.122 1318.36 217.53 1314.75 217.53ZM1128.42 192.931C1125.39 192.931 1122.48 194.114 1120.33 196.22C1118.18 198.326 1116.98 201.183 1116.98 204.161C1116.98 207.14 1118.18 209.996 1120.33 212.102C1122.48 214.208 1125.39 215.391 1128.42 215.391H1314.75C1317.78 215.391 1320.69 214.208 1322.84 212.102C1324.98 209.996 1326.19 207.14 1326.19 204.161C1326.19 201.183 1324.98 198.326 1322.84 196.22C1320.69 194.114 1317.78 192.931 1314.75 192.931H1128.42Z" fill="#3F3D56"/>
<path d="M1180.72 287.584H1128.8C1125.44 287.627 1122.18 286.417 1119.69 284.198C1117.2 281.979 1115.66 278.916 1115.37 275.626C1115.26 273.944 1115.48 272.255 1116.03 270.657C1116.58 269.059 1117.44 267.583 1118.57 266.312C1119.7 265.042 1121.07 264.002 1122.61 263.253C1124.15 262.504 1125.83 262.059 1127.54 261.945C1127.83 261.926 1128.13 261.916 1128.42 261.916H1180.72C1184.19 261.916 1187.52 263.268 1189.97 265.675C1192.42 268.082 1193.8 271.346 1193.8 274.75C1193.8 278.154 1192.42 281.418 1189.97 283.825C1187.52 286.232 1184.19 287.584 1180.72 287.584Z" fill="#67C9CD"/>
<path d="M1314.75 288.119H1128.42C1124.81 288.119 1121.34 286.71 1118.79 284.203C1116.23 281.696 1114.8 278.296 1114.8 274.75C1114.8 271.204 1116.23 267.804 1118.79 265.297C1121.34 262.789 1124.81 261.381 1128.42 261.381H1314.75C1318.36 261.381 1321.82 262.789 1324.38 265.297C1326.93 267.804 1328.37 271.204 1328.37 274.75C1328.37 278.296 1326.93 281.696 1324.38 284.203C1321.82 286.71 1318.36 288.119 1314.75 288.119ZM1128.42 263.52C1125.39 263.52 1122.48 264.703 1120.33 266.809C1118.18 268.915 1116.98 271.771 1116.98 274.75C1116.98 277.728 1118.18 280.585 1120.33 282.691C1122.48 284.797 1125.39 285.98 1128.42 285.98H1314.75C1317.78 285.98 1320.69 284.797 1322.84 282.691C1324.98 280.585 1326.19 277.728 1326.19 274.75C1326.19 271.771 1324.98 268.915 1322.84 266.809C1320.69 264.703 1317.78 263.52 1314.75 263.52H1128.42Z" fill="#3F3D56"/>
<path d="M1163.29 106.952H1119.7C1118.55 106.952 1117.44 106.502 1116.62 105.699C1115.8 104.897 1115.35 103.809 1115.35 102.674C1115.35 101.54 1115.8 100.452 1116.62 99.6493C1117.44 98.847 1118.55 98.3962 1119.7 98.3962H1163.29C1164.45 98.3962 1165.55 98.847 1166.37 99.6493C1167.19 100.452 1167.65 101.54 1167.65 102.674C1167.65 103.809 1167.19 104.897 1166.37 105.699C1165.55 106.502 1164.45 106.952 1163.29 106.952Z" fill="#CCCCCC"/>
<path d="M1163.29 177.541H1119.7C1118.55 177.541 1117.44 177.09 1116.62 176.288C1115.8 175.486 1115.35 174.398 1115.35 173.263C1115.35 172.128 1115.8 171.04 1116.62 170.238C1117.44 169.436 1118.55 168.985 1119.7 168.985H1163.29C1164.45 168.985 1165.55 169.436 1166.37 170.238C1167.19 171.04 1167.65 172.128 1167.65 173.263C1167.65 174.398 1167.19 175.486 1166.37 176.288C1165.55 177.09 1164.45 177.541 1163.29 177.541Z" fill="#CCCCCC"/>
<path d="M1163.29 248.13H1119.7C1118.55 248.13 1117.44 247.679 1116.62 246.877C1115.8 246.074 1115.35 244.986 1115.35 243.852C1115.35 242.717 1115.8 241.629 1116.62 240.826C1117.44 240.024 1118.55 239.573 1119.7 239.573H1163.29C1164.45 239.573 1165.55 240.024 1166.37 240.826C1167.19 241.629 1167.65 242.717 1167.65 243.852C1167.65 244.986 1167.19 246.074 1166.37 246.877C1165.55 247.679 1164.45 248.13 1163.29 248.13Z" fill="#CCCCCC"/>
<path d="M1097.92 107.873C1100.54 107.873 1102.66 105.745 1102.66 103.121C1102.66 100.496 1100.54 98.3684 1097.92 98.3684C1095.31 98.3684 1093.19 100.496 1093.19 103.121C1093.19 105.745 1095.31 107.873 1097.92 107.873Z" fill="#3F3D56"/>
<path d="M1097.92 178.461C1100.54 178.461 1102.66 176.334 1102.66 173.709C1102.66 171.085 1100.54 168.957 1097.92 168.957C1095.31 168.957 1093.19 171.085 1093.19 173.709C1093.19 176.334 1095.31 178.461 1097.92 178.461Z" fill="#3F3D56"/>
<path d="M1097.92 249.05C1100.54 249.05 1102.66 246.922 1102.66 244.298C1102.66 241.673 1100.54 239.546 1097.92 239.546C1095.31 239.546 1093.19 241.673 1093.19 244.298C1093.19 246.922 1095.31 249.05 1097.92 249.05Z" fill="#3F3D56"/>
<path d="M1410.01 582.026L1399.23 582.025L1394.09 541.179L1410.02 541.18L1410.01 582.026Z" fill="#FFB6B6"/>
<path d="M1410.39 593.072L1377.22 593.071V592.659C1377.22 589.298 1378.58 586.074 1381 583.697C1383.42 581.32 1386.71 579.985 1390.13 579.985L1396.19 575.472L1407.5 579.985L1410.39 579.986L1410.39 593.072Z" fill="#2F2E41"/>
<path d="M1452.51 582.026L1441.72 582.025L1436.59 541.179L1452.51 541.18L1452.51 582.026Z" fill="#FFB6B6"/>
<path d="M1452.89 593.072L1419.71 593.071V592.659C1419.71 589.298 1421.07 586.074 1423.5 583.697C1425.92 581.32 1429.2 579.985 1432.63 579.985L1438.69 575.472L1449.99 579.985L1452.89 579.986L1452.89 593.072Z" fill="#2F2E41"/>
<path d="M1372.89 326.205L1365.26 351.874L1374.25 460.585C1374.25 460.585 1369.62 467.382 1372.89 467.382C1376.16 467.382 1380.35 468.89 1377.71 472.949C1375.07 477.008 1384.09 491.581 1384.09 491.581L1396.86 568.987L1413.13 568.751C1413.13 568.751 1421.4 564.229 1416.76 559.656C1412.12 555.083 1408.85 555.083 1413.21 550.805C1417.56 546.527 1417.56 547.815 1417.56 544.497C1417.56 541.179 1421.93 500.63 1411.58 485.076L1414.7 421.658L1422.04 483.863L1437.18 566.848L1452.85 566.721C1452.85 566.721 1460.09 559.873 1460.07 554.805C1460.06 549.736 1455.6 549.315 1458.92 546.316C1462.24 543.318 1462.24 497.261 1452.43 471.66L1452.51 357.145C1452.51 357.145 1462.14 331.444 1452.38 321.338C1442.63 311.232 1372.89 326.205 1372.89 326.205Z" fill="#2F2E41"/>
<path d="M1471.11 281.42L1477.68 214.629C1477.95 211.798 1477.07 208.977 1475.24 206.774C1473.41 204.571 1470.77 203.163 1467.89 202.854C1464.98 202.541 1462.07 203.375 1459.79 205.173C1457.5 206.971 1456.04 209.585 1455.72 212.441C1455.7 212.631 1455.69 212.822 1455.67 213.013L1451.02 282.599L1446.37 324.764C1444.48 325.323 1442.81 326.44 1441.58 327.964C1440.36 329.488 1439.64 331.345 1439.53 333.283C1439.42 335.221 1439.92 337.145 1440.96 338.795C1442 340.444 1443.54 341.739 1445.35 342.503C1447.17 343.267 1449.18 343.464 1451.12 343.066C1453.05 342.668 1454.82 341.695 1456.17 340.279C1457.52 338.863 1458.4 337.073 1458.68 335.151C1458.96 333.23 1458.63 331.271 1457.73 329.54L1471.11 281.42Z" fill="#FFB6B6"/>
<path d="M1446.47 180.773L1470.14 183.686C1470.14 183.686 1487.88 216.497 1484.23 219.282C1480.58 222.066 1464.08 239.439 1451.92 231.475C1439.76 223.511 1446.47 180.773 1446.47 180.773Z" fill="#3F3D56"/>
<path d="M1405.71 149.293C1419.59 149.293 1430.84 138.253 1430.84 124.634C1430.84 111.016 1419.59 99.9755 1405.71 99.9755C1391.84 99.9755 1380.59 111.016 1380.59 124.634C1380.59 138.253 1391.84 149.293 1405.71 149.293Z" fill="#FFB6B6"/>
<path d="M1415.42 147.272C1408.21 147.039 1407.56 145.17 1400.35 144.938C1398.05 144.864 1395.34 144.555 1394.23 142.582C1393.91 141.842 1393.77 141.04 1393.81 140.236C1393.86 139.433 1394.1 138.651 1394.5 137.953C1395.32 136.566 1396.07 135.134 1396.72 133.665C1397.12 132.512 1397.22 131.282 1397.03 130.082C1396.83 128.881 1396.34 127.746 1395.59 126.773C1394.85 125.801 1393.87 125.022 1392.75 124.502C1391.63 123.982 1390.4 123.738 1389.16 123.79C1386.97 123.883 1384.91 124.896 1382.72 125.081C1379.72 125.335 1373.09 115.611 1374.47 112.985C1375.81 110.428 1378.52 108.499 1378.94 105.652C1379.22 103.79 1378.44 101.94 1378.33 100.061C1378.17 97.2748 1385.37 103.557 1384.05 101.084C1380.82 95.019 1411.28 87.4997 1416.29 95.0969C1418.17 97.9364 1421.51 97.7427 1424.48 99.4479C1426.43 100.566 1431.36 104.421 1432.48 106.825C1433.51 109.277 1434 111.916 1433.91 114.566C1433.95 126.894 1432.04 138.234 1421.91 145.521" fill="#2F2E41"/>
<path d="M1399.04 156.151L1419.74 151.872L1435.65 159.38C1435.65 159.38 1473.26 174.231 1473.13 188.874C1473 203.517 1466.39 235.603 1458.8 238.811C1451.21 242.02 1465.38 252.715 1461.02 259.132C1456.66 265.549 1450.06 309.39 1450.06 309.39C1450.06 309.39 1465.49 339.57 1452.43 345.456C1439.37 351.343 1384.19 356.846 1380.65 349.166C1377.11 341.485 1377.08 345.677 1368.93 343.581C1360.77 341.485 1368.93 312.103 1376.29 309.147C1383.65 306.191 1388.01 242.02 1388.01 242.02L1376.29 192.123L1394.17 167.422L1399.04 156.151Z" fill="#3F3D56"/>
<path d="M1384.54 293.306L1403.24 228.764C1404.03 226.028 1403.68 223.098 1402.29 220.608C1400.89 218.117 1398.55 216.266 1395.78 215.453C1392.97 214.632 1389.95 214.938 1387.38 216.303C1384.8 217.669 1382.88 219.982 1382.05 222.735C1381.99 222.919 1381.94 223.103 1381.9 223.29L1364.56 290.917L1352.26 331.574C1350.3 331.789 1348.45 332.593 1346.96 333.876C1345.48 335.159 1344.43 336.859 1343.97 338.746C1343.5 340.632 1343.64 342.613 1344.37 344.42C1345.09 346.227 1346.36 347.771 1348.01 348.844C1349.65 349.917 1351.6 350.465 1353.58 350.416C1355.55 350.366 1357.47 349.72 1359.06 348.566C1360.64 347.412 1361.83 345.806 1362.46 343.965C1363.09 342.124 1363.12 340.139 1362.56 338.278L1384.54 293.306Z" fill="#FFB6B6"/>
<path d="M1378.75 189.951L1401.5 196.996C1401.5 196.996 1416.3 218.322 1410.76 221.365C1405.22 224.407 1403.14 223.764 1405.99 229.131C1408.83 234.498 1412.94 232.403 1408.83 234.498C1404.73 236.592 1385.32 250.768 1374.82 240.787C1364.32 230.806 1378.75 189.951 1378.75 189.951Z" fill="#3F3D56"/>
<path d="M850 593.727C849.999 593.894 850.032 594.059 850.097 594.213C850.161 594.367 850.256 594.507 850.376 594.626C850.496 594.744 850.638 594.838 850.795 594.902C850.951 594.966 851.119 595 851.289 595H1630.7C1631.05 595 1631.38 594.866 1631.62 594.627C1631.86 594.389 1632 594.065 1632 593.727C1632 593.39 1631.86 593.066 1631.62 592.827C1631.38 592.589 1631.05 592.455 1630.7 592.455H851.297C851.127 592.454 850.959 592.486 850.802 592.55C850.645 592.613 850.502 592.706 850.381 592.824C850.261 592.941 850.165 593.081 850.1 593.234C850.034 593.388 850.001 593.553 850 593.72V593.727Z" fill="#CCCCCC"/>
<path d="M1315.09 225.941C1327.38 225.941 1337.33 216.167 1337.33 204.11C1337.33 192.053 1327.38 182.279 1315.09 182.279C1302.81 182.279 1292.85 192.053 1292.85 204.11C1292.85 216.167 1302.81 225.941 1315.09 225.941Z" fill="#67C9CD"/>
<path d="M1312.06 215.472C1311.67 215.472 1311.3 215.384 1310.95 215.215C1310.61 215.047 1310.31 214.802 1310.08 214.5L1304.01 206.559C1303.62 206.044 1303.45 205.396 1303.54 204.759C1303.63 204.121 1303.98 203.546 1304.51 203.159C1305.03 202.773 1305.69 202.607 1306.34 202.698C1306.99 202.789 1307.58 203.13 1307.97 203.645L1311.94 208.84L1322.14 193.829C1322.5 193.292 1323.06 192.917 1323.7 192.789C1324.35 192.66 1325.02 192.788 1325.56 193.143C1326.11 193.498 1326.49 194.053 1326.62 194.684C1326.75 195.315 1326.62 195.971 1326.26 196.508L1326.25 196.523L1314.12 214.39C1313.9 214.714 1313.6 214.98 1313.26 215.168C1312.91 215.356 1312.52 215.46 1312.13 215.471L1312.06 215.472Z" fill="white"/>
<path d="M1538.16 82.6041C1537.37 84.9981 1542.86 88.1716 1542.05 90.225C1541.25 92.2711 1535.52 89.8324 1528.37 91.5809C1527.08 91.8961 1518.96 93.8832 1518.81 97.4059C1518.52 104.083 1547.13 110.404 1547.54 120.398C1547.63 122.592 1546.37 125.195 1546.42 132.01C1546.44 134.722 1546.65 136.198 1547.65 136.983C1549.07 138.097 1550.84 136.846 1555.33 135.64C1562.06 133.831 1562.81 135.374 1567.8 133.458C1571.5 132.035 1573.03 130.437 1574.27 131.288C1576.02 132.491 1574.09 136.468 1576 138.25C1577.94 140.068 1582.56 138.375 1585.59 136.571C1591.27 133.186 1592.98 128.43 1595.6 124.443C1598.44 120.109 1603.68 114.657 1614.23 110.803L1709.42 80.1667C1689.53 86.0164 1634.25 101.097 1613 105.83C1606.87 107.197 1600.49 108.387 1594.74 104.874C1589.21 101.492 1584.94 94.1573 1576.37 87.3327C1575.37 86.5356 1572.56 84.3508 1570.84 85.1884C1569.41 85.8807 1570.02 88.0082 1568.7 88.6757C1566.92 89.5712 1564.38 86.4704 1559.54 84.0513C1556.13 82.3455 1553.3 81.8458 1550.88 81.416C1550.15 81.2865 1539.2 79.4171 1538.16 82.6041Z" fill="#F2F2F2"/>
<path d="M1651.37 134.443L1646.1 139.896L1645.39 139.929C1642.12 140.079 1639.49 140.931 1637.58 142.461C1637.28 142.705 1636.99 142.965 1636.69 143.23C1635.52 144.28 1634.06 145.586 1631.6 146.155C1630.22 146.47 1626.84 146.96 1625.46 144.688C1625.09 144.081 1624.98 143.478 1625 142.942C1624.9 142.951 1624.79 142.958 1624.67 142.967C1623.27 143.051 1622.48 142.856 1621.72 142.668C1621.13 142.524 1620.53 142.375 1619.35 142.329C1618.84 142.309 1618.4 142.318 1618.04 142.324C1616.94 142.343 1615.57 142.305 1614.6 141.076C1613.6 139.73 1614.04 138.251 1614.33 137.271C1614.84 135.523 1615.38 134.478 1615.74 133.785C1615.87 133.533 1616.02 133.247 1616.05 133.139C1616.28 132.263 1612.99 129.284 1611.76 128.157C1608.98 125.631 1606.58 123.446 1607.42 121.068C1608.01 119.367 1610.03 118.637 1613.59 118.847C1614.69 118.912 1615.68 119.139 1616.5 119.381C1616.38 118.725 1616.43 118.009 1616.9 117.359C1618 115.823 1620.5 116.001 1624.33 117.884C1625.28 118.35 1626.56 118.981 1627.92 120.21C1628.56 120.789 1629.07 121.366 1629.5 121.866C1629.78 121.657 1630.13 121.489 1630.58 121.424C1631.9 121.232 1633.21 121.988 1634.45 123.728C1635.84 125.623 1636.74 127.384 1637.53 128.935C1638.23 130.289 1638.83 131.453 1639.51 132.196C1640.79 133.561 1642.76 133.817 1645.21 134.01L1651.37 134.443Z" fill="#F2F2F2"/>
<path d="M1613.85 159.341L1620.82 163.616L1621.08 164.31C1622.33 167.522 1624.02 169.972 1626.12 171.596C1626.46 171.854 1626.8 172.096 1627.15 172.343C1628.55 173.32 1630.28 174.534 1631.65 176.875C1632.41 178.182 1634.02 181.442 1632.31 183.188C1631.86 183.662 1631.32 183.87 1630.8 183.946C1630.85 184.049 1630.89 184.153 1630.94 184.265C1631.49 185.639 1631.57 186.453 1631.64 187.236C1631.7 187.839 1631.76 188.46 1632.11 189.633C1632.27 190.147 1632.42 190.573 1632.55 190.932C1632.94 192.019 1633.36 193.374 1632.51 194.545C1631.57 195.761 1630.01 195.585 1628.98 195.47C1627.14 195.264 1625.96 194.906 1625.18 194.668C1624.89 194.581 1624.57 194.484 1624.46 194.473C1623.55 194.4 1621.81 198.16 1621.15 199.57C1619.67 202.746 1618.4 205.495 1615.85 205.077C1614.02 204.78 1612.65 202.91 1611.66 199.363C1611.35 198.258 1611.24 197.247 1611.19 196.392C1610.61 196.623 1609.91 196.694 1609.13 196.346C1607.29 195.518 1606.63 193.019 1607.14 188.914C1607.26 187.892 1607.43 186.521 1608.15 184.961C1608.48 184.227 1608.86 183.625 1609.2 183.115C1608.9 182.874 1608.62 182.557 1608.41 182.126C1607.79 180.856 1608.07 179.427 1609.31 177.902C1610.65 176.204 1612.03 175.015 1613.24 173.965C1614.3 173.046 1615.21 172.253 1615.69 171.451C1616.56 169.95 1616.14 167.958 1615.5 165.508L1613.85 159.341Z" fill="#F2F2F2"/>
<path d="M1599.29 176.616L1594.02 182.07L1593.31 182.102C1590.04 182.252 1587.41 183.104 1585.5 184.635C1585.2 184.878 1584.91 185.138 1584.61 185.403C1583.44 186.453 1581.99 187.759 1579.52 188.329C1578.14 188.643 1574.76 189.133 1573.38 186.862C1573.01 186.255 1572.91 185.651 1572.92 185.116C1572.82 185.124 1572.71 185.131 1572.59 185.14C1571.19 185.225 1570.4 185.03 1569.64 184.842C1569.05 184.698 1568.45 184.548 1567.27 184.503C1566.76 184.483 1566.32 184.491 1565.96 184.498C1564.86 184.516 1563.49 184.478 1562.52 183.25C1561.52 181.904 1561.96 180.424 1562.25 179.444C1562.76 177.696 1563.3 176.651 1563.66 175.959C1563.79 175.706 1563.94 175.421 1563.97 175.313C1564.2 174.436 1560.91 171.458 1559.68 170.33C1556.9 167.805 1554.5 165.619 1555.34 163.242C1555.93 161.54 1557.95 160.81 1561.51 161.02C1562.61 161.086 1563.6 161.312 1564.42 161.554C1564.3 160.898 1564.35 160.183 1564.82 159.533C1565.92 157.996 1568.42 158.175 1572.25 160.058C1573.2 160.523 1574.48 161.154 1575.84 162.383C1576.48 162.962 1576.99 163.539 1577.42 164.039C1577.7 163.831 1578.05 163.662 1578.5 163.597C1579.82 163.405 1581.13 164.162 1582.37 165.902C1583.76 167.797 1584.66 169.557 1585.45 171.109C1586.15 172.462 1586.75 173.626 1587.43 174.37C1588.71 175.734 1590.68 175.99 1593.13 176.184L1599.29 176.616Z" fill="#F2F2F2"/>
<path d="M1707.59 78.1077L1707.9 80.0673L1709.33 81.4936C1709.22 81.6258 1708.98 81.9577 1708.61 82.4722C1706.56 85.2888 1700.32 93.864 1689.21 105.793C1681.46 114.12 1673.03 122.109 1664.15 129.541C1655.25 136.985 1648.05 142.045 1642.27 146.113C1637.9 149.181 1633.69 152.029 1629.58 154.8C1618.6 162.207 1608.24 169.206 1598.03 178.514C1595.75 180.59 1591 184.915 1588.27 192.381C1586.69 196.712 1586.01 201.458 1586.26 206.486L1582.41 206.355C1582.13 200.802 1582.88 195.549 1584.64 190.74C1587.67 182.462 1592.84 177.75 1595.32 175.485C1605.71 166.013 1616.18 158.949 1627.26 151.47C1631.35 148.707 1635.55 145.874 1639.9 142.818C1645.63 138.788 1652.77 133.771 1661.55 126.422C1670.33 119.08 1678.66 111.189 1686.31 102.968C1697.27 91.1884 1703.42 82.7401 1705.44 79.9648C1706.51 78.4838 1706.74 78.1734 1707.59 78.1077Z" fill="#F2F2F2"/>
<path d="M1595.55 208.55C1595.65 208.679 1595.75 208.812 1595.85 208.952C1597.9 211.746 1598.44 215.428 1597.46 219.897C1597 221.995 1595.94 223.734 1593.83 227.202C1593.51 227.737 1591.83 230.419 1589.03 233.494C1587.2 235.503 1586.3 236.17 1585.16 236.344C1583.9 236.539 1582.64 236.213 1581.5 235.628C1581.25 235.893 1580.94 236.091 1580.54 236.196C1578.9 236.636 1577.9 235.078 1577.35 234.243C1577.08 233.815 1576.75 233.278 1576.29 232.772C1575.59 231.973 1575 231.711 1574.11 231.311C1573.27 230.928 1572.21 230.453 1571.02 229.443C1568.67 227.459 1567.69 224.997 1567.37 224.186C1565.65 219.93 1566.72 216.277 1567.96 212.049C1568.21 211.203 1569.19 208.205 1571.29 205.042C1572.81 202.76 1573.79 202.117 1574.62 201.763C1576.31 201.033 1577.85 201.309 1581.48 202.222C1585.27 203.173 1587.18 203.652 1588.58 204.249C1591.85 205.642 1593.9 206.516 1595.55 208.55Z" fill="#F2F2F2"/>
</g>
<defs>
<clipPath id="clip0_29_631">
<rect width="782" height="595" fill="white" transform="translate(850)"/>
</clipPath>
</defs>
</svg>
