<svg width="124" height="17" viewBox="0 0 124 17" fill="none" xmlns="http://www.w3.org/2000/svg">
<path d="M13.9383 15.7594H6.38437C6.13359 15.7594 5.92969 15.9633 5.92969 16.2141C5.92969 16.4649 6.13359 16.6688 6.38437 16.6688H13.9383C14.1891 16.6688 14.393 16.4649 14.393 16.2141C14.393 15.961 14.1891 15.7594 13.9383 15.7594Z" fill="#67C9CD"/>
<path d="M21.3961 15.0797V15.9938H22.6875C22.4977 15.4617 21.9914 15.0797 21.3961 15.0797Z" fill="#E6E6E6"/>
<path d="M19.1156 12.8414V2.51248C19.1156 2.13513 18.8086 1.83044 18.4336 1.83044H1.88906C1.51172 1.83044 1.20703 2.13748 1.20703 2.51248V12.8414C1.20703 13.2187 1.51406 13.5234 1.88906 13.5234H18.4336C18.8109 13.5258 19.1156 13.2187 19.1156 12.8414ZM18.0867 11.857C18.0867 12.232 17.7797 12.539 17.4047 12.539H2.92031C2.54531 12.539 2.23828 12.232 2.23828 11.857V3.49919C2.23828 3.12419 2.54531 2.81716 2.92031 2.81716H17.4047C17.7797 2.81716 18.0867 3.12419 18.0867 3.49919V11.857Z" fill="white"/>
<path d="M17.4047 2.8172H2.92031C2.54531 2.8172 2.23828 3.12423 2.23828 3.49923V11.857C2.23828 12.232 2.54531 12.5391 2.92031 12.5391H17.4047C17.7797 12.5391 18.0867 12.232 18.0867 11.857V3.49923C18.0867 3.12423 17.7797 2.8172 17.4047 2.8172ZM5.13984 3.57189C5.13984 3.53439 5.17031 3.50626 5.20547 3.50626H6.64219C6.67969 3.50626 6.70781 3.53673 6.70781 3.57189V3.98204C6.70781 4.01954 6.67734 4.04767 6.64219 4.04767H5.20547C5.16797 4.04767 5.13984 4.0172 5.13984 3.98204V3.57189ZM4.42969 3.48986C4.58437 3.48986 4.70859 3.61407 4.70859 3.76876C4.70859 3.92345 4.58437 4.04767 4.42969 4.04767C4.275 4.04767 4.15078 3.92345 4.15078 3.76876C4.15078 3.61407 4.27734 3.48986 4.42969 3.48986ZM3.51562 3.48986C3.67031 3.48986 3.79453 3.61407 3.79453 3.76876C3.79453 3.92345 3.67031 4.04767 3.51562 4.04767C3.36094 4.04767 3.23672 3.92345 3.23672 3.76876C3.23672 3.61407 3.36094 3.48986 3.51562 3.48986ZM9.07734 7.74845C9.07734 9.33751 7.78359 10.6313 6.19453 10.6313C4.60547 10.6313 3.31172 9.33751 3.31172 7.74845C3.31172 6.15939 4.60547 4.86564 6.19453 4.86564H6.42188V7.52111H9.07734V7.74845ZM6.96563 6.84142V4.62189C8.19141 4.62189 9.18516 5.61564 9.18516 6.84142H6.96563ZM15.7219 10.3313H12.4242C12.2977 10.3313 12.1969 10.2305 12.1969 10.1039C12.1969 9.97736 12.2977 9.87658 12.4242 9.87658H15.7219C15.8484 9.87658 15.9492 9.97736 15.9492 10.1039C15.9492 10.2281 15.8484 10.3313 15.7219 10.3313ZM15.7219 8.61329H12.3094C12.1828 8.61329 12.082 8.51251 12.082 8.38595C12.082 8.25939 12.1828 8.15861 12.3094 8.15861H15.7219C15.8484 8.15861 15.9492 8.25939 15.9492 8.38595C15.9492 8.51251 15.8484 8.61329 15.7219 8.61329ZM15.7219 6.89298H10.8094C10.6828 6.89298 10.582 6.7922 10.582 6.66564C10.582 6.53907 10.6828 6.43829 10.8094 6.43829H15.7242C15.8508 6.43829 15.9516 6.53907 15.9516 6.66564C15.9516 6.7922 15.8484 6.89298 15.7219 6.89298ZM15.7219 5.17501H10.8094C10.6828 5.17501 10.582 5.07423 10.582 4.94767C10.582 4.82111 10.6828 4.72032 10.8094 4.72032H15.7242C15.8508 4.72032 15.9516 4.82111 15.9516 4.94767C15.9516 5.07423 15.8484 5.17501 15.7219 5.17501Z" fill="#E6E6E6"/>
<path d="M5.96714 5.33203C4.73433 5.44688 3.76636 6.4875 3.76636 7.74844C3.76636 9.08672 4.8562 10.1766 6.19448 10.1766C7.45542 10.1766 8.49604 9.20859 8.61089 7.97578H5.96714V5.33203Z" fill="white"/>
<path d="M6.42192 4.8656H6.19458C4.60552 4.8656 3.31177 6.15935 3.31177 7.74841C3.31177 9.33748 4.60552 10.6312 6.19458 10.6312C7.78364 10.6312 9.07739 9.33748 9.07739 7.74841V7.52107H6.42192V4.8656ZM8.61099 7.9781C8.49614 9.21091 7.45552 10.1789 6.19458 10.1789C4.8563 10.1789 3.76645 9.08904 3.76645 7.75076C3.76645 6.48982 4.73442 5.44919 5.96724 5.33435V7.9781H8.61099Z" fill="#67C9CD"/>
<path d="M6.96558 4.62189V6.84142H9.18511C9.18511 5.61564 8.19136 4.62189 6.96558 4.62189Z" fill="#67C9CD"/>
<path d="M3.23669 3.76877C3.23669 3.84274 3.26608 3.91369 3.31838 3.96599C3.37069 4.0183 3.44163 4.04768 3.5156 4.04768C3.58957 4.04768 3.66051 4.0183 3.71282 3.96599C3.76512 3.91369 3.79451 3.84274 3.79451 3.76877C3.79451 3.6948 3.76512 3.62386 3.71282 3.57156C3.66051 3.51925 3.58957 3.48987 3.5156 3.48987C3.44163 3.48987 3.37069 3.51925 3.31838 3.57156C3.26608 3.62386 3.23669 3.6948 3.23669 3.76877Z" fill="white"/>
<path d="M4.15076 3.76877C4.15076 3.84274 4.18014 3.91369 4.23245 3.96599C4.28475 4.0183 4.35569 4.04768 4.42966 4.04768C4.50363 4.04768 4.57457 4.0183 4.62688 3.96599C4.67918 3.91369 4.70857 3.84274 4.70857 3.76877C4.70857 3.6948 4.67918 3.62386 4.62688 3.57156C4.57457 3.51925 4.50363 3.48987 4.42966 3.48987C4.35569 3.48987 4.28475 3.51925 4.23245 3.57156C4.18014 3.62386 4.15076 3.6948 4.15076 3.76877Z" fill="white"/>
<path d="M5.20552 4.04763H6.64224C6.67974 4.04763 6.70786 4.01716 6.70786 3.98201V3.57185C6.70786 3.53435 6.67739 3.50623 6.64224 3.50623H5.20552C5.16802 3.50623 5.13989 3.53669 5.13989 3.57185V3.98201C5.13989 4.01951 5.17036 4.04763 5.20552 4.04763Z" fill="white"/>
<path d="M21.396 14.168C20.2945 14.168 19.3734 14.9531 19.1625 15.9914H16.4507C16.1765 15.9914 15.9773 15.9375 15.907 15.8437C15.8601 15.7805 15.8601 15.6797 15.8601 15.6328V14.4351H18.4359C19.3148 14.4351 20.0273 13.7203 20.0273 12.8437V2.51249C20.0273 1.63358 19.3125 0.921082 18.4359 0.921082H1.88901C1.01011 0.921082 0.297607 1.63593 0.297607 2.51249V12.8414C0.297607 13.7203 1.01245 14.4328 1.88901 14.4328H14.9484V15.6328C14.9484 15.7453 14.9484 16.0851 15.1804 16.3922C15.4359 16.7297 15.8625 16.9008 16.4507 16.9008H23.6742V16.4461C23.6742 15.1898 22.6523 14.168 21.396 14.168ZM1.88901 13.5258C1.51167 13.5258 1.20698 13.2187 1.20698 12.8437V2.51249C1.20698 2.13514 1.51401 1.83046 1.88901 1.83046H18.4335C18.8109 1.83046 19.1156 2.13749 19.1156 2.51249V12.8414C19.1156 13.2187 18.8085 13.5234 18.4335 13.5234H1.88901V13.5258ZM21.396 15.9914H20.1046C20.2921 15.4594 20.8007 15.0773 21.396 15.0773C21.9914 15.0773 22.5 15.4594 22.6875 15.9914H21.396Z" fill="#67C9CD"/>
<path d="M15.7219 4.72034H10.8094C10.6828 4.72034 10.582 4.82112 10.582 4.94768C10.582 5.07424 10.6828 5.17502 10.8094 5.17502H15.7242C15.8508 5.17502 15.9516 5.07424 15.9516 4.94768C15.9516 4.82112 15.8484 4.72034 15.7219 4.72034Z" fill="#67C9CD"/>
<path d="M15.7219 6.43829H10.8094C10.6828 6.43829 10.582 6.53907 10.582 6.66564C10.582 6.7922 10.6828 6.89298 10.8094 6.89298H15.7242C15.8508 6.89298 15.9516 6.7922 15.9516 6.66564C15.9516 6.53907 15.8484 6.43829 15.7219 6.43829ZM15.7219 8.15861H12.3094C12.1828 8.15861 12.082 8.25939 12.082 8.38595C12.082 8.51251 12.1828 8.61329 12.3094 8.61329H15.7219C15.8484 8.61329 15.9492 8.51251 15.9492 8.38595C15.9492 8.25939 15.8484 8.15861 15.7219 8.15861Z" fill="#06F3FF"/>
<path d="M15.7219 9.87659H12.4242C12.2977 9.87659 12.1969 9.97737 12.1969 10.1039C12.1969 10.2305 12.2977 10.3313 12.4242 10.3313H15.7219C15.8485 10.3313 15.9492 10.2305 15.9492 10.1039C15.9492 9.97737 15.8485 9.87659 15.7219 9.87659Z" fill="#67C9CD"/>
<path d="M38.1587 15.2291C36.8987 15.2291 35.7979 14.9427 34.8561 14.37C33.9144 13.7973 33.1826 12.9956 32.6608 11.9647C32.139 10.9339 31.8781 9.73123 31.8781 8.35677C31.8781 6.99503 32.1454 5.79238 32.6799 4.7488C33.2144 3.70523 33.9716 2.89073 34.9516 2.30532C35.9442 1.70717 37.1151 1.4081 38.4641 1.4081C39.9913 1.4081 41.2639 1.77717 42.282 2.5153C43.3002 3.25344 43.9619 4.27156 44.2674 5.56966H41.9766C41.773 4.85698 41.3721 4.29701 40.774 3.88977C40.1758 3.48252 39.4059 3.27889 38.4641 3.27889C37.0642 3.27889 35.9633 3.73068 35.1616 4.63426C34.3598 5.53785 33.9589 6.78504 33.9589 8.37586C33.9589 9.96667 34.3534 11.2075 35.1425 12.0984C35.9315 12.9892 36.9815 13.4346 38.2923 13.4346C39.6158 13.4346 40.6085 13.0592 41.2703 12.3083C41.9448 11.5575 42.3393 10.5585 42.4539 9.31125H38.8268V7.74589H44.4965V15H42.6447L42.4729 13.0338C42.0275 13.7337 41.4675 14.2746 40.793 14.6564C40.1185 15.0382 39.2404 15.2291 38.1587 15.2291ZM51.3048 15.2291C50.3757 15.2291 49.5485 15.0255 48.8231 14.6182C48.1104 14.1982 47.5505 13.6192 47.1432 12.881C46.736 12.1429 46.5323 11.2839 46.5323 10.3039C46.5323 9.31125 46.7296 8.43949 47.1241 7.68863C47.5314 6.93776 48.0913 6.35234 48.804 5.93237C49.5294 5.51239 50.3694 5.30241 51.3239 5.30241C52.2529 5.30241 53.061 5.51239 53.7483 5.93237C54.4355 6.33962 54.97 6.88686 55.3518 7.57409C55.7336 8.26132 55.9245 9.01854 55.9245 9.84577C55.9245 9.97303 55.9181 10.113 55.9054 10.2657C55.9054 10.4057 55.8991 10.5648 55.8863 10.743H48.5177C48.5813 11.6593 48.8804 12.3593 49.4149 12.8429C49.9621 13.3137 50.5921 13.5492 51.3048 13.5492C51.8775 13.5492 52.3547 13.4219 52.7365 13.1674C53.131 12.9001 53.4237 12.5438 53.6146 12.0984H55.6382C55.3836 12.9892 54.8746 13.7337 54.111 14.3319C53.3601 14.93 52.4247 15.2291 51.3048 15.2291ZM51.3048 6.96321C50.6303 6.96321 50.0321 7.16684 49.5103 7.57409C48.9886 7.96861 48.6704 8.56675 48.5559 9.36852H53.901C53.8628 8.63039 53.6019 8.04497 53.1183 7.61227C52.6347 7.17957 52.0302 6.96321 51.3048 6.96321ZM58.0241 15V5.53148H59.8185L59.9712 7.19229C60.2639 6.60687 60.6903 6.14872 61.2502 5.81783C61.8229 5.47421 62.4784 5.30241 63.2165 5.30241C64.3619 5.30241 65.2591 5.65875 65.9081 6.37143C66.5699 7.08412 66.9008 8.14678 66.9008 9.55942V15H64.8964V9.76941C64.8964 7.93679 64.1455 7.02048 62.6438 7.02048C61.8929 7.02048 61.2693 7.28774 60.773 7.82225C60.2894 8.35677 60.0476 9.12036 60.0476 10.113V15H58.0241ZM72.4911 15.2291C71.6894 15.2291 71.0276 15.0954 70.5058 14.8282C69.984 14.5609 69.5958 14.211 69.3413 13.7783C69.0868 13.3328 68.9595 12.8492 68.9595 12.3274C68.9595 11.4111 69.3159 10.6857 70.0285 10.1512C70.7412 9.61669 71.7594 9.34943 73.0829 9.34943H75.5646V9.17763C75.5646 8.43949 75.361 7.88589 74.9537 7.51682C74.5592 7.14775 74.0438 6.96321 73.4074 6.96321C72.8475 6.96321 72.3575 7.10321 71.9375 7.38319C71.5303 7.65045 71.2821 8.05133 71.193 8.58584H69.1695C69.2331 7.89861 69.4622 7.31319 69.8567 6.82959C70.264 6.33325 70.773 5.95782 71.3839 5.70329C72.0075 5.43603 72.6884 5.30241 73.4265 5.30241C74.7501 5.30241 75.7746 5.65239 76.5 6.35234C77.2254 7.03957 77.5881 7.98133 77.5881 9.17763V15H75.8318L75.66 13.3774C75.3928 13.8992 75.0046 14.3382 74.4956 14.6946C73.9865 15.0509 73.3183 15.2291 72.4911 15.2291ZM72.892 13.5874C73.4393 13.5874 73.8974 13.4601 74.2665 13.2056C74.6483 12.9383 74.941 12.5883 75.1446 12.1556C75.361 11.7229 75.4946 11.2457 75.5455 10.7239H73.2929C72.4911 10.7239 71.9184 10.8639 71.5748 11.1439C71.2439 11.4239 71.0785 11.7738 71.0785 12.1938C71.0785 12.6265 71.2376 12.9701 71.5557 13.2247C71.8866 13.4665 72.332 13.5874 72.892 13.5874ZM84.4336 15.2291C83.5045 15.2291 82.6709 15.0191 81.9328 14.5991C81.2074 14.1791 80.6347 13.6001 80.2147 12.8619C79.8075 12.1111 79.6038 11.2457 79.6038 10.2657C79.6038 9.2858 79.8075 8.42676 80.2147 7.68863C80.6347 6.93776 81.2074 6.35234 81.9328 5.93237C82.6709 5.51239 83.5045 5.30241 84.4336 5.30241C85.6044 5.30241 86.5843 5.60784 87.3734 6.21871C88.1751 6.82959 88.6906 7.65681 88.9196 8.70038H86.8007C86.6734 8.1786 86.3934 7.77135 85.9607 7.47864C85.528 7.18593 85.019 7.03957 84.4336 7.03957C83.9372 7.03957 83.4791 7.16684 83.0591 7.42137C82.6391 7.66317 82.3019 8.02588 82.0473 8.50948C81.7928 8.98037 81.6655 9.56578 81.6655 10.2657C81.6655 10.9657 81.7928 11.5575 82.0473 12.0411C82.3019 12.512 82.6391 12.8747 83.0591 13.1292C83.4791 13.3837 83.9372 13.511 84.4336 13.511C85.019 13.511 85.528 13.3646 85.9607 13.0719C86.3934 12.7792 86.6734 12.3656 86.8007 11.8311H88.9196C88.7033 12.8492 88.1942 13.6701 87.3925 14.2937C86.5907 14.9173 85.6044 15.2291 84.4336 15.2291ZM94.8985 15C93.9694 15 93.2313 14.7773 92.6841 14.3319C92.1368 13.8737 91.8632 13.0656 91.8632 11.9075V7.23047H90.2406V5.53148H91.8632L92.1114 3.12617H93.8867V5.53148H96.5593V7.23047H93.8867V11.9075C93.8867 12.4292 93.9949 12.792 94.2112 12.9956C94.4403 13.1865 94.8285 13.2819 95.3757 13.2819H96.4638V15H94.8985ZM99.7911 3.73705C99.4093 3.73705 99.0911 3.62251 98.8366 3.39343C98.5948 3.15163 98.4739 2.85255 98.4739 2.49621C98.4739 2.13987 98.5948 1.84716 98.8366 1.61808C99.0911 1.37628 99.4093 1.25538 99.7911 1.25538C100.173 1.25538 100.485 1.37628 100.727 1.61808C100.981 1.84716 101.108 2.13987 101.108 2.49621C101.108 2.85255 100.981 3.15163 100.727 3.39343C100.485 3.62251 100.173 3.73705 99.7911 3.73705ZM98.7793 15V5.53148H100.803V15H98.7793ZM106.128 15L102.577 5.53148H104.696L107.33 13.0719L109.965 5.53148H112.064L108.533 15H106.128ZM117.671 15.2291C116.742 15.2291 115.915 15.0255 115.19 14.6182C114.477 14.1982 113.917 13.6192 113.51 12.881C113.103 12.1429 112.899 11.2839 112.899 10.3039C112.899 9.31125 113.096 8.43949 113.491 7.68863C113.898 6.93776 114.458 6.35234 115.171 5.93237C115.896 5.51239 116.736 5.30241 117.691 5.30241C118.62 5.30241 119.428 5.51239 120.115 5.93237C120.802 6.33962 121.337 6.88686 121.719 7.57409C122.1 8.26132 122.291 9.01854 122.291 9.84577C122.291 9.97303 122.285 10.113 122.272 10.2657C122.272 10.4057 122.266 10.5648 122.253 10.743H114.884C114.948 11.6593 115.247 12.3593 115.782 12.8429C116.329 13.3137 116.959 13.5492 117.671 13.5492C118.244 13.5492 118.721 13.4219 119.103 13.1674C119.498 12.9001 119.79 12.5438 119.981 12.0984H122.005C121.75 12.9892 121.241 13.7337 120.478 14.3319C119.727 14.93 118.791 15.2291 117.671 15.2291ZM117.671 6.96321C116.997 6.96321 116.399 7.16684 115.877 7.57409C115.355 7.96861 115.037 8.56675 114.923 9.36852H120.268C120.23 8.63039 119.969 8.04497 119.485 7.61227C119.001 7.17957 118.397 6.96321 117.671 6.96321Z" fill="#67C9CD"/>
</svg>
